<svg width="30" height="30" viewBox="0 0 30 30" fill="none" xmlns="http://www.w3.org/2000/svg">
    <path d="M17.8118 16.8994C17.062 16.8994 16.4059 17.6093 16.031 18.6036H4.97111C3.09656 18.6036 1.59691 16.1894 1.59691 13.3491C1.59691 10.5089 3.09656 8.09468 4.97111 8.09468H6.56449C6.56449 7.52663 6.75194 6.95858 6.84567 6.39054C6.9394 6.24852 6.9394 5.9645 7.03313 5.82249C7.78295 3.69231 9.28259 2.27219 10.9697 2.27219C12.4693 2.27219 13.7815 3.40829 14.6251 5.11243C15.0937 4.8284 15.5624 4.54438 16.1247 4.40237C15.0937 1.70414 13.2192 0 10.9697 0C8.43904 0 6.2833 2.4142 5.34602 5.82249H4.97111C2.25301 5.82249 0.00354004 9.23077 0.00354004 13.4911C0.00354004 17.7515 2.25301 21.0178 4.97111 21.0178H16.1247C16.4059 22.0118 17.062 22.7219 17.9056 22.7219C18.9367 22.7219 19.7801 21.4438 19.7801 19.7397C19.7801 18.0355 18.9366 16.8994 17.8118 16.8994ZM23.9979 11.0768C22.8731 7.66847 20.5299 5.25426 17.9056 5.25426C14.6251 5.25426 11.907 8.80456 11.2509 13.491C9.6575 13.775 8.25159 15.0531 7.40804 16.8992H15.5624C16.1247 15.7631 16.9684 15.1951 17.9056 15.1951C19.5927 15.1951 20.9048 17.3253 20.9048 19.8815C20.9048 22.4377 19.4989 24.5679 17.9056 24.5679C16.9683 24.5679 16.1247 23.8578 15.5624 22.8637H6.47076C6.84567 26.8401 9.09514 29.9643 11.7195 29.9643H23.9041C27.2783 29.9643 29.9964 25.846 29.9964 20.5916C29.9964 15.3371 27.2783 11.2188 23.9979 11.0768Z" fill="#008CDB"/>
</svg>
