<svg width="24" height="30" viewBox="0 0 24 30" fill="none" xmlns="http://www.w3.org/2000/svg">
    <path d="M6.00124 30C9.31258 30 12 27.76 12 25V20H6.00124C2.6899 20 0.00244141 22.24 0.00244141 25C0.00244141 27.76 2.6899 30 6.00124 30Z" fill="#0ACF83"/>
    <path d="M0.00244141 15C0.00244141 12.24 2.6899 10 6.00124 10H12V20H6.00124C2.6899 20 0.00244141 17.76 0.00244141 15Z" fill="#A259FF"/>
    <path d="M0.00244141 5C0.00244141 2.24 2.6899 0 6.00124 0H12V9.99999H6.00124C2.6899 9.99999 0.00244141 7.75999 0.00244141 5Z" fill="#F24E1E"/>
    <path d="M12 0H17.9988C21.3101 0 23.9976 2.24 23.9976 5C23.9976 7.75999 21.3101 9.99999 17.9988 9.99999H12V0Z" fill="#FF7262"/>
    <path d="M23.9976 15C23.9976 17.76 21.3101 20 17.9988 20C14.6875 20 12 17.76 12 15C12 12.24 14.6875 10 17.9988 10C21.3101 10 23.9976 12.24 23.9976 15Z" fill="#1ABCFE"/>
</svg>
