<svg width="30" height="30" viewBox="0 0 30 30" fill="none" xmlns="http://www.w3.org/2000/svg">
    <path d="M13.5792 0.318671C14.3949 -0.105266 15.4573 -0.107181 16.2723 0.318671C20.3723 2.42229 24.4737 4.52261 28.5731 6.62751C29.3441 7.02187 29.8599 7.80102 29.852 8.60772V21.2639C29.8578 22.104 29.2911 22.9018 28.4776 23.2872C24.391 25.3792 20.3065 27.4738 16.2206 29.5658C15.388 29.9981 14.3043 29.9648 13.4977 29.4971C12.2726 28.8522 11.0453 28.2105 9.82003 27.5662C9.56965 27.4307 9.28741 27.3228 9.11061 27.1024C9.26691 26.9111 9.54634 26.8873 9.7734 26.8038C10.2848 26.6561 10.7545 26.4191 11.2243 26.1891C11.3431 26.1153 11.4882 26.1436 11.6021 26.2096C12.6497 26.7551 13.6881 27.3163 14.7393 27.8566C14.9636 27.9741 15.1906 27.8181 15.3823 27.721C19.3925 25.663 23.4077 23.6128 27.4172 21.5542C27.5657 21.4893 27.6479 21.3461 27.6358 21.1984C27.6386 17.0234 27.6365 12.8476 27.6372 8.67261C27.6542 8.50495 27.5473 8.3508 27.3804 8.28219C23.3079 6.19974 19.2376 4.1141 15.1659 2.03112C15.0954 1.98708 15.0118 1.96345 14.9262 1.96334C14.8406 1.96323 14.7569 1.98663 14.6862 2.03048C10.6145 4.1141 6.54488 6.20165 2.47316 8.284C2.30679 8.35272 2.19513 8.50432 2.21493 8.67261C2.21563 12.8476 2.21493 17.0234 2.21493 21.199C2.20787 21.2711 2.22531 21.3434 2.2649 21.4063C2.30449 21.4691 2.36433 21.5194 2.43637 21.5504C3.52293 22.1099 4.61089 22.6654 5.69816 23.2229C6.31068 23.5223 7.06274 23.7002 7.73759 23.4708C8.33313 23.2769 8.75058 22.7251 8.73921 22.1509C8.74483 18.0003 8.7364 13.849 8.74343 9.699C8.72855 9.51474 8.92105 9.36251 9.11835 9.37985C9.64042 9.37666 10.1632 9.37346 10.6853 9.38112C10.9032 9.37666 11.0532 9.57506 11.0262 9.7607C11.0241 13.9376 11.0318 18.1146 11.0227 22.2916C11.0241 23.4048 10.5204 24.616 9.38641 25.1607C7.98937 25.8178 6.26264 25.6785 4.88247 25.0484C3.68766 24.5069 2.54744 23.8678 1.37382 23.2877C0.55826 22.9044 -0.00564009 22.1035 0.000100841 21.264V8.60772C-0.00845198 7.78431 0.527798 6.99102 1.32286 6.6024C5.40877 4.50867 9.49397 2.41335 13.5792 0.318671Z" fill="#8CC84B"/>
    <path d="M17.1437 9.08569C18.9257 8.98154 20.8335 9.02398 22.4371 9.82111C23.6787 10.432 24.367 11.714 24.3889 12.9664C24.3542 13.1354 24.1597 13.2286 23.9821 13.217C23.4651 13.2163 22.9479 13.2233 22.4309 13.2138C22.2116 13.2214 22.0841 13.0378 22.0565 12.8617C21.908 12.2625 21.5481 11.669 20.9269 11.3799C19.9733 10.9464 18.8676 10.9682 17.8278 10.9773C17.0687 11.0139 16.2525 11.0736 15.6094 11.4789C15.1156 11.7859 14.9657 12.4057 15.1419 12.9048C15.308 13.2632 15.7637 13.3789 16.1365 13.4855C18.2841 13.9955 20.5598 13.9447 22.6664 14.6159C23.5385 14.8895 24.3917 15.4214 24.6902 16.2506C25.0807 17.3618 24.9096 18.6901 24.0388 19.5823C23.3327 20.3164 22.3042 20.716 21.2785 20.933C19.9139 21.2093 18.4978 21.2163 17.112 21.0936C15.8089 20.9588 14.4529 20.6479 13.4469 19.8417C12.5867 19.1635 12.1666 18.1068 12.2083 17.0869C12.2182 16.9147 12.4071 16.7946 12.5888 16.8088C13.1095 16.8049 13.6301 16.8037 14.1508 16.8094C14.3588 16.7959 14.513 16.9591 14.5236 17.1371C14.6197 17.708 14.856 18.3073 15.4043 18.6458C16.4625 19.2657 17.7903 19.2232 19.002 19.2406C20.0059 19.2001 21.1327 19.1879 21.9519 18.5855C22.3841 18.2418 22.5122 17.6669 22.3954 17.1724C22.2688 16.7548 21.7878 16.5602 21.3747 16.433C19.2546 15.8241 16.9534 16.045 14.8539 15.3564C14.0016 15.0829 13.1773 14.5658 12.8498 13.7707C12.3929 12.6454 12.6023 11.2534 13.5643 10.3914C14.5023 9.53398 15.8563 9.20377 17.1437 9.08558V9.08569Z" fill="#8CC84B"/>
</svg>
