<svg width="16" height="16" viewBox="0 0 16 16" fill="none" xmlns="http://www.w3.org/2000/svg">
    <defs>
        <path id="close-1" d="M0.429423 13.6971C-0.143141 13.1246 -0.143141 12.1769 0.429423 11.6043L11.6043 0.429423C12.1769 -0.143141 13.1245 -0.143141 13.6971 0.429423C14.2697 1.00199 14.2697 1.94968 13.6971 2.52224L2.52224 13.6971C2.24583 13.9933 1.85096 14.1315 1.47583 14.1315C1.1007 14.1315 0.725577 13.9933 0.429423 13.6971Z" />
        <path id="close-2" d="M11.6043 13.6971L0.429423 2.52224C-0.143141 1.94968 -0.143141 1.00199 0.429423 0.429423C1.00199 -0.143141 1.94968 -0.143141 2.52224 0.429423L13.6971 11.6043C14.2697 12.1769 14.2697 13.1246 13.6971 13.6971C13.401 13.9933 13.0258 14.1315 12.6507 14.1315C12.2756 14.1315 11.9004 13.9933 11.6043 13.6971Z" />
    </defs>
    <g class="close-icon">
        <use href="#close-1" x="0" y="0" />
        <use href="#close-2" x="0" y="0" />
    </g>
</svg>
