<svg width="30" height="30" viewBox="0 0 30 30" fill="none" xmlns="http://www.w3.org/2000/svg">
    <path d="M29.9495 8.82412C29.9493 8.32104 29.8282 7.87651 29.5834 7.49498C29.3429 7.11981 28.9828 6.80537 28.4998 6.55675C24.5125 4.51331 20.5213 2.47612 16.5353 0.4306C15.4607 -0.120803 14.4187 -0.1007 13.3521 0.458617C11.765 1.29051 3.81914 5.33666 1.45137 6.5556C0.47625 7.05732 0.00175781 7.82516 0.00152344 8.82318C0 12.9327 0.00152344 17.042 0 21.1516C0.000234375 21.6436 0.116133 22.0795 0.350156 22.4553C0.590742 22.8419 0.955898 23.1649 1.45008 23.4192C3.81797 24.6381 11.7649 28.684 13.3516 29.5161C14.4187 30.0757 15.4607 30.0957 16.5356 29.5441C20.5218 27.4985 24.5132 25.4614 28.5011 23.4179C28.9952 23.1638 29.3604 22.8405 29.601 22.4543C29.8346 22.0785 29.9508 21.6426 29.951 21.1505C29.951 21.1505 29.951 12.9337 29.9495 8.82412Z" fill="#5C8DBC"/>
    <path d="M15.0213 14.9474L0.350098 22.4554C0.590684 22.8419 0.955841 23.165 1.45002 23.4192C3.81792 24.6382 11.7649 28.684 13.3516 29.5161C14.4187 30.0758 15.4606 30.0958 16.5356 29.5442C20.5217 27.4985 24.5131 25.4614 28.501 23.418C28.9952 23.1639 29.3604 22.8406 29.601 22.4543L15.0213 14.9474Z" fill="#1A4674"/>
    <path d="M10.6759 17.1713C11.5296 18.4959 13.1345 19.3894 14.9755 19.3894C16.8279 19.3894 18.4419 18.4846 19.2913 17.1458L15.0213 14.9474L10.6759 17.1713Z" fill="#1A4674"/>
    <path d="M29.9495 8.82414C29.9493 8.32106 29.8282 7.87652 29.5834 7.495L15.0214 14.9474L29.601 22.4544C29.8347 22.0786 29.9508 21.6427 29.951 21.1505C29.951 21.1505 29.951 12.9337 29.9495 8.82414Z" fill="#1B598E"/>
    <path d="M29.1477 15.484H28.0084V16.4968H26.8689V15.484H25.7297V14.4715H26.8689V13.4589H28.0084V14.4715H29.1477V15.484ZM24.9905 15.484H23.8513V16.4968H22.712V15.484H21.5728V14.4715H22.712V13.4589H23.8513V14.4715H24.9905V15.484Z" fill="white"/>
    <path d="M19.2913 17.1458C18.4419 18.4846 16.8279 19.3894 14.9755 19.3894C13.1345 19.3894 11.5296 18.496 10.6759 17.1713C10.247 16.5066 10.0218 15.7536 10.0227 14.9874C10.0227 12.5563 12.2402 10.5854 14.9755 10.5854C16.8047 10.5854 18.4011 11.4677 19.259 12.7788L23.5881 10.5632C21.8674 7.92329 18.6549 6.14722 14.9755 6.14722C9.48219 6.14722 5.02917 10.1052 5.02917 14.9874C5.02917 16.5891 5.50859 18.0911 6.34648 19.3867C8.06281 22.0406 11.2844 23.8276 14.9755 23.8276C18.6733 23.8276 21.9 22.0334 23.6138 19.3717L19.2913 17.1458Z" fill="white"/>
</svg>
