<svg width="30" height="30" viewBox="0 0 30 30" fill="none" xmlns="http://www.w3.org/2000/svg">
    <path d="M9.67281 23.1912C9.67281 23.1912 8.12641 23.8567 10.7734 24.0819C13.9802 24.3526 15.619 24.3138 19.153 23.8188C19.153 23.8188 20.0821 24.2499 21.3796 24.6233C13.4576 27.1358 3.45042 24.4778 9.67281 23.1912ZM8.70476 19.9126C8.70476 19.9126 6.9703 20.8627 9.61927 21.0654C13.0448 21.3269 15.75 21.3483 20.4312 20.6813C20.4312 20.6813 21.0787 21.167 22.0967 21.4327C12.5185 23.5053 1.85012 21.5961 8.70476 19.9126Z" fill="#5382A1"/>
    <path d="M16.8656 14.351C18.8176 16.014 16.3527 17.5106 16.3527 17.5106C16.3527 17.5106 21.3091 15.6172 19.0329 13.2461C16.907 11.0352 15.2765 9.93642 24.1025 6.14862C24.1025 6.14862 10.2487 8.70903 16.8656 14.3509" fill="#E76F00"/>
    <path d="M27.343 25.6164C27.343 25.6164 28.4874 26.3141 26.0826 26.854C21.51 27.8791 7.05064 28.1886 3.03385 26.8948C1.58998 26.4301 4.29775 25.785 5.14946 25.6495C6.03771 25.507 6.54541 25.5336 6.54541 25.5336C4.93961 24.6965 -3.83378 27.1773 2.089 27.8877C18.2411 29.8261 31.5326 27.0149 27.343 25.6164ZM10.4163 16.5156C10.4163 16.5156 3.0615 17.8084 7.81189 18.2777C9.81759 18.4765 13.816 18.4316 17.5404 18.2006C20.5842 18.0107 23.6406 17.6066 23.6406 17.6066C23.6406 17.6066 22.5673 17.9468 21.7909 18.3391C14.322 19.7928 -0.106395 19.1165 4.04736 17.6296C7.56021 16.3731 10.4164 16.5156 10.4164 16.5156H10.4163ZM23.6103 21.973C31.2028 19.0535 27.6923 16.2479 25.2421 16.6259C24.6415 16.7183 24.3737 16.7985 24.3737 16.7985C24.3737 16.7985 24.5967 16.5401 25.0225 16.4282C29.8698 15.1671 33.5977 20.1476 23.4577 22.1202C23.4577 22.1203 23.5752 22.0426 23.6103 21.973Z" fill="#5382A1"/>
    <path d="M19.0329 0.0321912C19.0329 0.0321912 23.2377 3.1449 15.0448 7.93111C8.47501 11.7706 13.5467 13.9597 15.0421 16.4609C11.2072 13.9005 8.39276 11.6465 10.2809 9.54877C13.0521 6.46926 20.7294 4.97629 19.0329 0.0321045" fill="#E76F00"/>
    <path d="M11.1624 29.8842C18.4502 30.2295 29.6414 29.6927 29.9065 27.1409C29.9065 27.1409 29.397 28.1083 23.8835 28.8765C17.6632 29.7427 9.99143 29.6416 5.44116 29.0864C5.44128 29.0864 6.37266 29.6569 11.1625 29.8842" fill="#5382A1"/>
</svg>
