<svg width="30" height="30" viewBox="0 0 30 30" fill="none" xmlns="http://www.w3.org/2000/svg">
    <path d="M14.8715 0.00848389C7.27476 0.00848389 7.74909 3.31613 7.74909 3.31613L7.75753 6.74295H15.007V7.77177H4.87815C4.87815 7.77177 0.0169678 7.21824 0.0169678 14.9141C0.0169678 22.6102 4.25993 22.3373 4.25993 22.3373H6.79211V18.766C6.79211 18.766 6.6556 14.506 10.9673 14.506H18.1575C18.1575 14.506 22.1972 14.5715 22.1972 10.5861V3.99648C22.1972 3.99648 22.8107 0.00848389 14.8715 0.00848389ZM10.8742 2.31295C11.0455 2.3128 11.2152 2.34656 11.3735 2.41231C11.5318 2.47806 11.6756 2.5745 11.7967 2.69612C11.9179 2.81774 12.0139 2.96215 12.0794 3.12109C12.1449 3.28002 12.1785 3.45036 12.1784 3.62236C12.1785 3.79436 12.1449 3.9647 12.0794 4.12363C12.0139 4.28257 11.9179 4.42698 11.7967 4.5486C11.6756 4.67022 11.5318 4.76666 11.3735 4.83241C11.2152 4.89816 11.0455 4.93193 10.8742 4.93177C10.7029 4.93193 10.5332 4.89816 10.3749 4.83241C10.2166 4.76666 10.0728 4.67022 9.95165 4.5486C9.83052 4.42698 9.73446 4.28257 9.66897 4.12363C9.60349 3.9647 9.56986 3.79436 9.57001 3.62236C9.56986 3.45036 9.60349 3.28002 9.66897 3.12109C9.73446 2.96215 9.83052 2.81774 9.95165 2.69612C10.0728 2.5745 10.2166 2.47806 10.3749 2.41231C10.5332 2.34656 10.7029 2.3128 10.8742 2.31295Z" fill="url(#paint0_linear_13_66)"/>
    <path d="M15.0874 29.8972C22.6841 29.8972 22.2098 26.5895 22.2098 26.5895L22.2014 23.1628H14.9518V22.134H25.0806C25.0806 22.134 29.9418 22.6875 29.9418 14.9914C29.9418 7.29539 25.6989 7.56834 25.6989 7.56834H23.1667V11.1395C23.1667 11.1395 23.3032 15.3995 18.9914 15.3995H11.8013C11.8013 15.3995 7.7616 15.334 7.7616 19.3195V25.9093C7.7616 25.9093 7.14818 29.8972 15.0872 29.8972H15.0874ZM19.0847 27.5929C18.9134 27.5931 18.7437 27.5593 18.5854 27.4936C18.4271 27.4278 18.2833 27.3314 18.1622 27.2098C18.041 27.0882 17.945 26.9437 17.8795 26.7848C17.814 26.6259 17.7804 26.4555 17.7805 26.2835C17.7804 26.1115 17.814 25.9412 17.8795 25.7822C17.9449 25.6233 18.041 25.4788 18.1621 25.3572C18.2833 25.2356 18.4271 25.1391 18.5854 25.0734C18.7437 25.0076 18.9134 24.9738 19.0847 24.974C19.256 24.9738 19.4257 25.0076 19.584 25.0734C19.7423 25.1391 19.8861 25.2356 20.0072 25.3572C20.1284 25.4788 20.2244 25.6232 20.2899 25.7821C20.3554 25.9411 20.389 26.1114 20.3889 26.2834C20.389 26.4554 20.3554 26.6258 20.2899 26.7847C20.2244 26.9436 20.1284 27.088 20.0072 27.2097C19.8861 27.3313 19.7423 27.4277 19.584 27.4935C19.4257 27.5592 19.256 27.593 19.0847 27.5928V27.5929Z" fill="url(#paint1_linear_13_66)"/>
    <defs>
        <linearGradient id="paint0_linear_13_66" x1="2.89273" y1="2.69679" x2="17.7814" y2="17.3779" gradientUnits="userSpaceOnUse">
            <stop stop-color="#387EB8"/>
            <stop offset="1" stop-color="#366994"/>
        </linearGradient>
        <linearGradient id="paint1_linear_13_66" x1="11.9953" y1="12.1624" x2="27.9811" y2="27.2138" gradientUnits="userSpaceOnUse">
            <stop stop-color="#FFE052"/>
            <stop offset="1" stop-color="#FFC331"/>
        </linearGradient>
    </defs>
</svg>
