<svg width="128" height="128" viewBox="0 0 128 128" fill="none" xmlns="http://www.w3.org/2000/svg">
<g filter="url(#filter0_d)">
<circle cx="64" cy="64" r="32" fill="#4B4B4B"/>
<ellipse cx="64" cy="64" rx="17" ry="16" fill="#EDEDED"/>
<path d="M58 27H71V41H58V27Z" fill="#4B4B4B"/>
<path d="M43.4922 73.8354L52.7652 83.1084L42.8299 93.0437L33.557 83.7707L43.4922 73.8354Z" fill="#4B4B4B"/>
<path d="M74.7722 84.0451L84.0451 74.7722L93.9804 84.7075L84.7075 93.9804L74.7722 84.0451Z" fill="#4B4B4B"/>
<path d="M84.7075 33.557L93.9804 42.8299L84.0451 52.7652L74.7722 43.4923L84.7075 33.557Z" fill="#4B4B4B"/>
<path d="M34.4937 42.8299L43.7666 33.557L53.7019 43.4923L44.429 52.7652L34.4937 42.8299Z" fill="#4B4B4B"/>
<path d="M58 87H71V101H58V87Z" fill="#4B4B4B"/>
<path d="M101 57V70H87V57H101Z" fill="#4B4B4B"/>
<path d="M27 70V57H41V70H27Z" fill="#4B4B4B"/>
</g>
<defs>
<filter id="filter0_d" x="27" y="27" width="78" height="78" filterUnits="userSpaceOnUse" color-interpolation-filters="sRGB">
<feFlood flood-opacity="0" result="BackgroundImageFix"/>
<feColorMatrix in="SourceAlpha" type="matrix" values="0 0 0 0 0 0 0 0 0 0 0 0 0 0 0 0 0 0 127 0"/>
<feOffset dx="2" dy="2"/>
<feGaussianBlur stdDeviation="1"/>
<feColorMatrix type="matrix" values="0 0 0 0 0.337255 0 0 0 0 0.337255 0 0 0 0 0.337255 0 0 0 0.25 0"/>
<feBlend mode="normal" in2="BackgroundImageFix" result="effect1_dropShadow"/>
<feBlend mode="normal" in="SourceGraphic" in2="effect1_dropShadow" result="shape"/>
</filter>
</defs>
</svg>
