<svg width="128" height="128" viewBox="0 0 128 128" fill="none" xmlns="http://www.w3.org/2000/svg">
<path d="M91.0534 72.1203C88.8906 76.4997 85.6384 80.2497 81.6092 83.0105C77.5799 85.7713 72.9087 87.4503 68.0438 87.8862C63.1789 88.3222 58.2836 87.5005 53.8277 85.5001C49.3717 83.4997 45.5047 80.3876 42.5976 76.4626C39.6905 72.5375 37.841 67.9312 37.2265 63.0856C36.612 58.24 37.2531 53.3178 39.0884 48.7914C40.9236 44.2649 43.8914 40.286 47.707 37.2366C51.5225 34.1872 56.0577 32.1696 60.8774 31.3774C56.9925 44.441 62.9562 55.9144 65.5 59.5C68.0438 63.0856 79.0095 71.0145 91.0534 72.1203Z" fill="#FDA163"/>
</svg>

