<svg width="128" height="128" viewBox="0 0 128 128" fill="none" xmlns="http://www.w3.org/2000/svg">
<circle cx="63.5" cy="63.5" r="28.5" fill="#5A5C5E"/>
<path d="M63.5 24L69.1292 33.75H57.8708L63.5 24Z" fill="#5A5C5E"/>
<path d="M92.7886 89.7886L81.9139 86.8747L89.8747 78.9139L92.7886 89.7886Z" fill="#5A5C5E"/>
<path d="M33.5962 89.7886L36.5101 78.9139L44.4709 86.8747L33.5962 89.7886Z" fill="#5A5C5E"/>
<path d="M92.7886 36.5962L89.8747 47.4709L81.9139 39.5101L92.7886 36.5962Z" fill="#5A5C5E"/>
<path d="M34.5962 36.5962L45.4709 39.5101L37.5101 47.4709L34.5962 36.5962Z" fill="#5A5C5E"/>
<path d="M103 63.5L93.25 69.1292V57.8708L103 63.5Z" fill="#5A5C5E"/>
<path d="M24 63.5L33.75 57.8708V69.1292L24 63.5Z" fill="#5A5C5E"/>
<path d="M63.5 103L69.1292 93.25H57.8708L63.5 103Z" fill="#5A5C5E"/>
</svg>




